<svg xmlns="http://www.w3.org/2000/svg" version="1.1" viewBox="-5.0 -10.0 110.0 135.0">
 <path d="m86 66h-4.2305l2.4219-6.4609c1.1992-3.1914 1.8008-6.5391 1.8008-9.9492 0-5.4414-1.3789-10.77-4-15.5l-0.003907-20.09c0-1.3906-0.71875-2.6719-1.8984-3.3984-1.1797-0.73047-2.6484-0.80078-3.8906-0.17187l-15.672 7.8281c-2.1484-0.44922-4.3398-0.67187-6.5391-0.67187h-8c-2.1992 0-4.3984 0.23047-6.5391 0.67187l-15.672-7.8398c-1.2383-0.62109-2.7109-0.55078-3.8906 0.17969-1.1797 0.73047-1.8984 2.0195-1.8984 3.3984v20.09c-2.6211 4.7305-4 10.059-4 15.5 0 3.4102 0.60938 6.7617 1.8008 9.9492l2.4219 6.4609h-4.2305c-2.2109 0-4 1.7891-4 4 0 2.2109 1.7891 4 4 4h7.2305l1.1289 3.0195c0.32031 0.83984 0.69922 1.6484 1.1211 2.4297l-5.3398 3.0781c-1.9102 1.1016-2.5703 3.5508-1.4609 5.4609 1.1016 1.9102 3.5508 2.5703 5.4609 1.4609l6.5586-3.7891c3.4609 2.7305 7.8008 4.3281 12.379 4.3281h6.9102v-10l-5.1719-5.1719c-0.53125-0.53125-0.82812-1.25-0.82812-2 0-1.5586 1.2695-2.8281 2.8281-2.8281h10.34c1.5586 0 2.8281 1.2695 2.8281 2.8281 0 0.75-0.30078 1.4688-0.82812 2l-5.1719 5.1719v10h6.9102c4.5781 0 8.9219-1.6016 12.379-4.3281l6.5586 3.7891c1.9102 1.1016 4.3594 0.44922 5.4609-1.4609 1.1016-1.9102 0.44922-4.3594-1.4609-5.4609l-5.3398-3.0781c0.42188-0.78125 0.80078-1.5898 1.1211-2.4297l1.1289-3.0195h7.2305c2.2109 0 4-1.7891 4-4 0-2.2109-1.7891-4-4-4zm-50-4c-3.3086 0-6-2.6914-6-6s2.6914-6 6-6 6 2.6914 6 6-2.6914 6-6 6zm28 0c-3.3086 0-6-2.6914-6-6s2.6914-6 6-6 6 2.6914 6 6-2.6914 6-6 6z"/>
<text x="0.0" y="117.5" font-size="5.0" font-weight="bold" font-family="Arbeit Regular, Helvetica, Arial-Unicode, Arial, Sans-serif" fill="#000000">Created by Daniel Tacho</text><text x="0.0" y="122.5" font-size="5.0" font-weight="bold" font-family="Arbeit Regular, Helvetica, Arial-Unicode, Arial, Sans-serif" fill="#000000">from Noun Project</text></svg>