<svg xmlns="http://www.w3.org/2000/svg" version="1.1" viewBox="-5.0 -10.0 110.0 135.0">
 <path d="m50 2.5c-24.75 0-38.992 11.246-38.992 36.203 0 7.0117 1.6523 14.551 4.9453 22.492 3.9766 9.4883 10.008 18.566 16.293 25.27 6.2812 6.6992 12.797 11.035 17.754 11.035 13.207 0 38.992-31.672 38.992-58.695 0-25.059-14.242-36.305-38.992-36.305zm-24.473 51.117c-6.3164-6.3164-8.3438-14.523-4.5352-18.332 3.8086-3.8203 12.016-1.7812 18.332 4.5352 6.3164 6.3164 8.3555 14.523 4.5352 18.332-3.8047 3.8086-12.016 1.7812-18.332-4.5352zm30.656 25.73h-12.367c-1.6523 0-2.9961-1.3438-2.9961-2.9961 0-1.6523 1.3438-2.9961 2.9961-2.9961h12.371c1.6523 0 2.9961 1.3438 2.9961 2.9961-0.003906 1.6523-1.3477 2.9961-3 2.9961zm18.246-25.656c-6.3164 6.3164-14.523 8.3555-18.344 4.5352-3.8086-3.8086-1.7695-12.016 4.5508-18.332 6.3164-6.3164 14.523-8.3438 18.332-4.5352 3.8047 3.8086 1.7773 12.016-4.5391 18.332z"/>
<text x="0.0" y="117.5" font-size="5.0" font-weight="bold" font-family="Arbeit Regular, Helvetica, Arial-Unicode, Arial, Sans-serif" fill="#000000">Created by morphon</text><text x="0.0" y="122.5" font-size="5.0" font-weight="bold" font-family="Arbeit Regular, Helvetica, Arial-Unicode, Arial, Sans-serif" fill="#000000">from Noun Project</text></svg>