<svg xmlns="http://www.w3.org/2000/svg" version="1.1" viewBox="-5.0 -10.0 110.0 135.0">
 <path d="m71.996 22.184-1.9805-0.68359 4.5508-13.191 1.9805 0.68359zm-8.5781-2.9258-1.6758-14.258-2.0781 0.24219 1.6719 14.258zm-41.906 16.848c0.57031 0.48438 1.1562 0.95703 1.7539 1.4102 0.5625 0.42578 1.1367 0.83984 1.7188 1.2383 0.54297 0.37109 1.0938 0.72656 1.6484 1.0742 0.50781 0.3125 1.0234 0.61719 1.5469 0.91016 0.46484 0.25781 0.93359 0.50781 1.4102 0.75 0.41016 0.20703 0.82031 0.40625 1.2383 0.59375 0.16797 0.074219 0.33594 0.14844 0.50391 0.22266 0.14844 0.0625 0.29297 0.125 0.44141 0.17187 0.082031 0.023438 0.16797 0.046876 0.25781 0.0625 0.0625 0.011719 0.125 0.019532 0.1875 0.03125 0.17969 0.027344 0.35938 0.058594 0.54297 0.085938 0.24609 0.039062 0.49609 0.078125 0.74219 0.11719 0.30469 0.046874 0.60938 0.097656 0.91406 0.14453 0.35156 0.054687 0.70703 0.11328 1.0625 0.16797 0.39453 0.0625 0.78516 0.125 1.1797 0.1875 0.42578 0.066406 0.84766 0.13672 1.2734 0.20312 0.44531 0.070313 0.89062 0.14063 1.3359 0.21484 0.45703 0.074219 0.91797 0.14844 1.375 0.21875 0.46094 0.074219 0.92578 0.14844 1.3867 0.22266 0.45703 0.074219 0.91406 0.14453 1.3711 0.21875 0.44141 0.070313 0.88672 0.14063 1.3281 0.21094 0.42188 0.066406 0.83984 0.13281 1.2617 0.20312 0.38672 0.0625 0.77734 0.125 1.1641 0.1875 0.34766 0.054687 0.69531 0.10938 1.043 0.16797 0.29688 0.046875 0.59375 0.09375 0.89062 0.14062 0.23828 0.039062 0.47656 0.074219 0.71484 0.11328 0.17187 0.027344 0.33984 0.054688 0.51172 0.082031 0.027344 0 0.0625 0.007813 0.089844 0.015625 0.03125 0.003906 0.0625 0.011719 0.09375 0.015625 0.20312 0.03125 0.40234 0.085938 0.60938 0.10547 0.19141 0.019531 0.38672 0.019531 0.57812-0.003906 0.1875-0.019532 0.375-0.058594 0.55469-0.11719 0.17969-0.054687 0.35156-0.12891 0.51562-0.21875 0.16406-0.089844 0.31641-0.19531 0.46094-0.3125 0.070312-0.058594 0.13672-0.11719 0.19922-0.17969 0.34766-0.34766 0.61719-0.77734 0.74609-1.2812 0.41406-1.5312-0.49609-3.1055-2.0273-3.5195l-12.176-2.8633c-1.0352-0.42188-0.96094-1.9141 0.11328-2.2305 6.3086-2.4453 12.906-4.3086 19.695-5.793l18.41 4.668c1.5859 0.55078 3.332-0.375 3.7305-2.0508 0.34766-1.457-0.58984-2.9258-2.0039-3.418 0 0-17.719-6.1523-17.723-6.1484-4.4961-1.3555-13.25-3.0273-13.25-3.0273s-12.352-0.19141-18.707-0.12891c-0.99219 0.007812-2.2734-0.74609-3-1.418-3.4453-3.1875-6.2227-6.1406-7.7539-8.7305-0.1875-0.32031-0.61719-0.38281-0.87891-0.12109l-11.691 11.672c-0.22656 0.22656-0.21875 0.58984 0.015625 0.80859 3.1758 2.9062 6.5547 5.9727 9.4609 9.6406 0.52734 0.66797 1.082 1.3164 1.6562 1.9414 0.55469 0.60547 1.1289 1.1914 1.7227 1.7617 0.56641 0.54297 1.1523 1.0742 1.7539 1.582zm68.66-20.336-1.4844-1.4766-10.109 10.195 1.4844 1.4766zm2.9844 45.836-6.3984 1.9648-0.007812-0.015624-29.824 9.168c-0.035156 0.011719-0.058593 0.042969-0.058593 0.078125v22.113c0 0.054688 0.054687 0.09375 0.10547 0.078126l36.23-11.203c0.035156-0.011718 0.058594-0.042968 0.058594-0.078124l0.003906-22.027c0-0.054688-0.054687-0.09375-0.10938-0.078125zm-67.547 1.9492-0.007813 0.015624-6.3984-1.9648c-0.054687-0.015625-0.10547 0.023437-0.10547 0.078125v22.031c0 0.035156 0.023438 0.066406 0.058594 0.078125l36.23 11.203c0.054687 0.015625 0.10547-0.023438 0.10547-0.078125v-22.113c0-0.035157-0.023438-0.066407-0.058594-0.078126zm66.398-2.9805c0.078126-0.023438 0.078126-0.13281 0-0.15625l-13.379-4.1367c0.16406 0.99609 0.24609 1.8438 0.26172 2.6562l0.007813 0.59375-0.42188 0.41797c-1.8906 1.8633-10.18 3.75-22.355 3.75-12.18 0-20.465-1.8867-22.355-3.75l-0.42188-0.41797 0.007812-0.59375c0.015626-0.81641 0.097657-1.668 0.26172-2.6562l-13.461 4.1641c-0.078125 0.023438-0.078125 0.13281 0 0.15625l6.1602 1.8867 29.785 9.1172c0.015625 0.003906 0.03125 0.003906 0.046875 0l29.902-9.1992zm-57.02-4.1328c-0.13672 0.82422-0.23438 1.6602-0.25 2.5156 1.2539 1.2344 8.418 3.3516 21.383 3.3516s20.129-2.1133 21.383-3.3516c-0.015625-0.85547-0.11328-1.6914-0.25-2.5156-6.1328 2.4414-16.941 2.6992-21.133 2.6992-4.1914 0.003906-15-0.25391-21.133-2.6992zm45.293-4.5195c0-9.4219-6.5664-17.449-15.773-20.539l-3.75-0.94922c-0.42187-0.074219-0.85156-0.13672-1.2812-0.19141-7.0547 1.5664-13.281 3.4062-19.016 5.6289-0.11719 0.039062-0.16016 0.050781-0.16406 0.12891-0.003906 0.042969 0.011719 0.066406 0.027344 0.082031l12.055 2.8359c2.1367 0.57812 3.3867 2.7461 2.8203 4.8477-0.16797 0.65625-0.51562 1.25-1.0234 1.7617-0.085937 0.085937-0.17578 0.16797-0.26953 0.24609-0.19922 0.16406-0.41016 0.30859-0.63672 0.42969-0.22266 0.12109-0.46094 0.22266-0.70703 0.30078s-0.50391 0.12891-0.76172 0.16016c-0.13672 0.015626-0.27344 0.023438-0.41406 0.023438-0.125 0-0.25391-0.003906-0.37891-0.019531-0.16406-0.015625-0.32422-0.046875-0.48437-0.078125l-16.871-2.6992c-1.0859 2.4883-1.6875 5.1992-1.6875 8.0391-0.007813 7.7695 48.316 7.7695 48.316-0.007813z"/>
<text x="0.0" y="117.5" font-size="5.0" font-weight="bold" font-family="Arbeit Regular, Helvetica, Arial-Unicode, Arial, Sans-serif" fill="#000000">Created by huijae Jang</text><text x="0.0" y="122.5" font-size="5.0" font-weight="bold" font-family="Arbeit Regular, Helvetica, Arial-Unicode, Arial, Sans-serif" fill="#000000">from Noun Project</text></svg>