<svg xmlns="http://www.w3.org/2000/svg" version="1.1" viewBox="-5.0 -10.0 110.0 135.0">
 <path d="m22.426 88.422h55.121c4.5469 0 8.2188-3.6953 8.2188-8.2188l0.003906-37.879c0-4.5469-3.6953-8.2188-8.2188-8.2188h-25.645v-4.7148c4.0391-0.84766 7.0938-4.4766 7.0938-8.793 0-4.9805-4.0391-9.0234-9-9.0234-4.9805 0-9.0234 4.0391-9.0234 9.0234 0 4.3164 3.0547 7.9453 7.1172 8.793v4.7148h-25.668c-4.5469 0-8.2188 3.6953-8.2188 8.2188v37.902c0 4.5234 3.6758 8.1953 8.2188 8.1953zm40.844-42.676c3.5117 0 6.3594 2.8477 6.3594 6.3359 0 3.5117-2.8477 6.3359-6.3594 6.3359-3.4883 0-6.3359-2.8242-6.3359-6.3359-0.023438-3.4883 2.8242-6.3359 6.3359-6.3359zm-2.4102 26.133c1.0547 0 1.9062 0.84766 1.9062 1.9062 0 1.0547-0.84766 1.9062-1.9062 1.9062l-21.742-0.003906c-1.0547 0-1.9062-0.84766-1.9062-1.9062 0-1.0547 0.84766-1.9062 1.9062-1.9062zm-24.129-26.133c3.5117 0 6.3359 2.8477 6.3359 6.3359 0 3.5117-2.8242 6.3359-6.3359 6.3359s-6.3359-2.8242-6.3359-6.3359c-0.023437-3.4883 2.8008-6.3359 6.3359-6.3359z"/>
 <path d="m89.578 44.023v27.48c4.3633-0.042968 7.9219-3.6484 7.9219-8.0352v-11.41c0-4.3828-3.5586-7.9648-7.9219-8.0352z"/>
 <path d="m10.398 71.504v-27.48c-4.3867 0.070312-7.8984 3.6484-7.8984 8.0352v11.387c0 4.4102 3.5117 7.9688 7.8984 8.0586z"/>
<text x="0.0" y="117.5" font-size="5.0" font-weight="bold" font-family="Arbeit Regular, Helvetica, Arial-Unicode, Arial, Sans-serif" fill="#000000">Created by AVATAAR</text><text x="0.0" y="122.5" font-size="5.0" font-weight="bold" font-family="Arbeit Regular, Helvetica, Arial-Unicode, Arial, Sans-serif" fill="#000000">from Noun Project</text></svg>