<svg xmlns="http://www.w3.org/2000/svg" version="1.1" viewBox="-5.0 -10.0 110.0 135.0">
 <path d="m78 10h-7.1602c-3.1602 0-6.25 0.94141-8.8789 2.6914l-7.9688 5.3086h0.011718c-0.19922 0.011719-0.39062 0-0.58984 0h-6.8594c-0.19922 0-0.39063 0.011719-0.58984 0.011719h0.011718l-7.9688-5.3281c-2.6289-1.75-5.7188-2.6914-8.8789-2.6914h-7.1602c-6.6289 0-12 5.3711-12 12v16c0 2.2109 1.7891 4 4 4 1.5195 0 3.0117-0.19922 4.4688-0.55078-0.30078 1.6602-0.46875 3.3711-0.46875 5.1211v3.2891c0 2.75 0.39844 5.4805 1.1797 8.1211l6.1016 20.57c2.0117 6.7891 8.25 11.449 15.34 11.449h1.3906c3.3086 0 6-2.6914 6-6v-4l-5.1719-5.1719c-0.53125-0.53125-0.82812-1.25-0.82812-2 0-1.5586 1.2695-2.8281 2.8281-2.8281h10.34c1.5586 0 2.8281 1.2695 2.8281 2.8281 0 0.75-0.30078 1.4688-0.82812 2l-5.1719 5.1719v4c0 3.3086 2.6914 6 6 6h1.3906c7.0898 0 13.328-4.6602 15.34-11.449l6.1016-20.57c0.78125-2.6406 1.1797-5.3711 1.1797-8.1211v-3.2891c0-1.75-0.17188-3.4609-0.46875-5.1211 1.4492 0.35156 2.9492 0.55078 4.4688 0.55078 2.2109 0 4-1.7891 4-4v-16c0-6.6289-5.3711-12-12-12zm-42 52c-3.3086 0-6-2.6914-6-6s2.6914-6 6-6 6 2.6914 6 6-2.6914 6-6 6zm28 0c-3.3086 0-6-2.6914-6-6s2.6914-6 6-6 6 2.6914 6 6-2.6914 6-6 6z"/>
<text x="0.0" y="117.5" font-size="5.0" font-weight="bold" font-family="Arbeit Regular, Helvetica, Arial-Unicode, Arial, Sans-serif" fill="#000000">Created by Daniel Tacho</text><text x="0.0" y="122.5" font-size="5.0" font-weight="bold" font-family="Arbeit Regular, Helvetica, Arial-Unicode, Arial, Sans-serif" fill="#000000">from Noun Project</text></svg>