<?xml version="1.0" encoding="utf-8"?>
<!-- Generator: Adobe Illustrator 16.0.0, SVG Export Plug-In . SVG Version: 6.00 Build 0)  -->
<!DOCTYPE svg PUBLIC "-//W3C//DTD SVG 1.1//EN" "http://www.w3.org/Graphics/SVG/1.1/DTD/svg11.dtd">
<svg version="1.1" id="Layer_1" xmlns="http://www.w3.org/2000/svg" xmlns:xlink="http://www.w3.org/1999/xlink" x="0px" y="0px"
	 width="64px" height="64px" viewBox="0 0 64 64" enable-background="new 0 0 64 64" xml:space="preserve">
<path d="M36.03,9.083c-0.905-0.418-1.966-0.273-2.726,0.36L18.583,21.72H8.176c-1.413,0-2.569,1.151-2.569,2.57v15.435
	c0,1.42,1.156,2.571,2.569,2.571h10.407l14.716,12.267c0.458,0.393,1.045,0.592,1.647,0.592c0.375,0,0.737-0.071,1.084-0.229
	c0.911-0.424,1.492-1.334,1.492-2.34V11.427C37.522,10.421,36.936,9.505,36.03,9.083z M54.852,20.457
	c-2.239-3.349-5.413-6.148-9.195-8.189c-0.91-0.491-2.045-0.148-2.537,0.754c-0.491,0.908-0.145,2.04,0.755,2.531
	c3.302,1.779,6.006,4.196,7.872,6.984c1.865,2.793,2.904,5.947,2.91,9.307c0,3.369-1.039,6.513-2.91,9.306
	c-1.866,2.788-4.57,5.201-7.872,6.984c-0.905,0.491-1.246,1.625-0.755,2.53c0.492,0.909,1.627,1.246,2.537,0.754
	c3.782-2.043,6.956-4.849,9.195-8.19c2.241-3.341,3.542-7.239,3.542-11.384C58.394,27.697,57.093,23.798,54.852,20.457z
	 M43.718,39.312c-0.85,0.575-1.072,1.732-0.503,2.593c0.581,0.855,1.738,1.078,2.598,0.503c3.353-2.263,5.548-6.151,5.548-10.559
	c0-4.399-2.195-8.293-5.548-10.558c-0.854-0.579-2.017-0.355-2.598,0.506c-0.575,0.852-0.352,2.013,0.503,2.592
	c2.341,1.582,3.91,4.318,3.91,7.466C47.628,34.983,46.059,37.726,43.718,39.312z"/>
</svg>
