<?xml version="1.0" encoding="utf-8"?>
<!-- Generator: Adobe Illustrator 16.0.0, SVG Export Plug-In . SVG Version: 6.00 Build 0)  -->
<!DOCTYPE svg PUBLIC "-//W3C//DTD SVG 1.1//EN" "http://www.w3.org/Graphics/SVG/1.1/DTD/svg11.dtd">
<svg version="1.1" id="Layer_1" xmlns="http://www.w3.org/2000/svg" xmlns:xlink="http://www.w3.org/1999/xlink" x="0px" y="0px"
	 width="64px" height="64px" viewBox="0 0 64 64" enable-background="new 0 0 64 64" xml:space="preserve">
<path d="M48.784,25.83l-1.329-0.46l3.056-8.853l1.325,0.458L48.784,25.83z M43.027,23.866l-1.127-9.57l-1.395,0.164l1.121,9.569
	L43.027,23.866z M14.903,35.174c0.38,0.326,0.771,0.643,1.174,0.948c0.377,0.284,0.764,0.561,1.155,0.829
	c0.361,0.25,0.731,0.49,1.106,0.721c0.339,0.209,0.684,0.416,1.037,0.612c0.309,0.172,0.623,0.341,0.945,0.505
	c0.273,0.136,0.55,0.271,0.827,0.399c0.115,0.048,0.23,0.097,0.345,0.147c0.098,0.041,0.195,0.08,0.297,0.114
	c0.055,0.017,0.113,0.03,0.171,0.043c0.044,0.007,0.085,0.013,0.126,0.021c0.118,0.016,0.242,0.038,0.367,0.058
	c0.162,0.024,0.329,0.052,0.493,0.077c0.208,0.033,0.412,0.066,0.616,0.096c0.234,0.039,0.476,0.076,0.714,0.112
	c0.259,0.047,0.526,0.087,0.792,0.128c0.284,0.043,0.567,0.09,0.854,0.138c0.301,0.048,0.596,0.094,0.896,0.143
	c0.307,0.05,0.613,0.099,0.922,0.146c0.309,0.05,0.621,0.1,0.933,0.15c0.306,0.054,0.611,0.1,0.916,0.148
	c0.302,0.047,0.599,0.094,0.896,0.14c0.283,0.043,0.561,0.092,0.845,0.139c0.259,0.042,0.524,0.083,0.781,0.124
	c0.234,0.039,0.464,0.072,0.702,0.112c0.199,0.034,0.396,0.063,0.596,0.099c0.161,0.022,0.321,0.048,0.479,0.071
	c0.116,0.021,0.228,0.041,0.343,0.056c0.019,0,0.041,0.006,0.06,0.012c0.023,0.002,0.043,0.008,0.065,0.012
	c0.134,0.019,0.271,0.059,0.407,0.071c0.131,0.01,0.262,0.01,0.386-0.004c0.131-0.013,0.254-0.041,0.379-0.079
	c0.117-0.036,0.231-0.085,0.343-0.146c0.11-0.062,0.213-0.134,0.313-0.209c0.044-0.041,0.089-0.081,0.13-0.122
	c0.235-0.234,0.417-0.524,0.502-0.862c0.276-1.025-0.334-2.081-1.361-2.36l-8.176-1.922c-0.689-0.284-0.642-1.286,0.082-1.499
	c4.23-1.64,8.659-2.89,13.217-3.887l12.355,3.133c1.067,0.369,2.235-0.251,2.504-1.376c0.23-0.978-0.393-1.963-1.344-2.295
	c0,0-11.893-4.129-11.894-4.125c-3.02-0.909-8.896-2.033-8.896-2.033s-8.288-0.128-12.556-0.086
	c-0.666,0.003-1.525-0.501-2.014-0.952c-2.312-2.139-4.178-4.122-5.203-5.859c-0.128-0.217-0.416-0.257-0.594-0.081l-7.843,7.834
	c-0.151,0.151-0.148,0.396,0.012,0.541c2.129,1.954,4.396,4.012,6.348,6.472c0.354,0.448,0.726,0.884,1.108,1.302
	c0.375,0.408,0.758,0.8,1.158,1.182C14.103,34.479,14.495,34.832,14.903,35.174L14.903,35.174z M60.984,21.524l-0.999-0.99
	l-6.786,6.841l0.999,0.994L60.984,21.524z M54.346,45.789c0-6.322-4.408-11.71-10.589-13.784l-2.516-0.638
	c-0.284-0.05-0.571-0.093-0.858-0.128c-4.74,1.049-8.916,2.286-12.767,3.777c-0.075,0.025-0.107,0.033-0.109,0.085
	c-0.005,0.032,0.007,0.046,0.021,0.056l8.089,1.903c1.438,0.387,2.272,1.847,1.894,3.255c-0.114,0.441-0.346,0.843-0.687,1.183
	c-0.06,0.057-0.116,0.111-0.181,0.164c-0.135,0.11-0.275,0.211-0.428,0.288c-0.148,0.084-0.309,0.149-0.473,0.201
	c-0.164,0.053-0.341,0.089-0.512,0.107c-0.091,0.012-0.188,0.018-0.281,0.018c-0.082,0-0.17-0.002-0.253-0.014
	c-0.109-0.007-0.214-0.03-0.321-0.053L23.05,40.397c-0.73,1.673-1.136,3.494-1.136,5.397C21.908,51.008,54.346,51.008,54.346,45.789
	L54.346,45.789z"/>
</svg>
