<?xml version="1.0" encoding="utf-8"?>
<!-- Generator: Adobe Illustrator 16.0.0, SVG Export Plug-In . SVG Version: 6.00 Build 0)  -->
<!DOCTYPE svg PUBLIC "-//W3C//DTD SVG 1.1//EN" "http://www.w3.org/Graphics/SVG/1.1/DTD/svg11.dtd">
<svg version="1.1" id="Layer_1" xmlns="http://www.w3.org/2000/svg" xmlns:xlink="http://www.w3.org/1999/xlink" x="0px" y="0px"
	 width="64px" height="64px" viewBox="0 0 64 64" enable-background="new 0 0 64 64" xml:space="preserve">
<path d="M32,4.5c-14.331,0-22.572,6.509-22.572,20.958c0,4.063,0.949,8.426,2.861,13.026c2.303,5.491,5.794,10.747,9.436,14.626
	c3.631,3.877,7.41,6.39,10.275,6.39c7.644,0,22.572-18.333,22.572-33.98C54.572,11.009,46.331,4.5,32,4.5L32,4.5z M17.83,34.095
	c-3.657-3.657-4.832-8.408-2.627-10.612c2.204-2.215,6.961-1.034,10.616,2.627c3.657,3.656,4.837,8.407,2.627,10.611
	C26.244,38.926,21.486,37.751,17.83,34.095z M35.583,48.988h-7.166c-0.949,0-1.731-0.773-1.731-1.733
	c0-0.958,0.782-1.731,1.731-1.731h7.168c0.958,0,1.731,0.773,1.731,1.731C37.314,48.215,36.532,48.988,35.583,48.988L35.583,48.988z
	 M46.141,34.139c-3.656,3.656-8.403,4.837-10.614,2.626c-2.204-2.203-1.023-6.959,2.634-10.616
	c3.656-3.656,8.403-4.832,10.608-2.626C50.971,25.726,49.796,30.479,46.141,34.139L46.141,34.139z"/>
</svg>
