<?xml version="1.0" encoding="utf-8"?>
<!-- Generator: Adobe Illustrator 16.0.0, SVG Export Plug-In . SVG Version: 6.00 Build 0)  -->
<!DOCTYPE svg PUBLIC "-//W3C//DTD SVG 1.1//EN" "http://www.w3.org/Graphics/SVG/1.1/DTD/svg11.dtd">
<svg version="1.1" id="Layer_1" xmlns="http://www.w3.org/2000/svg" xmlns:xlink="http://www.w3.org/1999/xlink" x="0px" y="0px"
	 width="64px" height="64px" viewBox="0 0 64 64" enable-background="new 0 0 64 64" xml:space="preserve">
<path d="M54.522,42.009h-2.641l1.512-4.042c0.75-1.998,1.126-4.079,1.126-6.216c0-3.405-0.854-6.734-2.497-9.69L52.021,9.498
	c0-0.867-0.448-1.669-1.184-2.125c-0.738-0.454-1.657-0.499-2.436-0.106L38.6,12.161c-1.336-0.281-2.706-0.421-4.092-0.421h-4.996
	c-1.371,0-2.745,0.145-4.092,0.421L15.63,7.26c-0.774-0.387-1.698-0.344-2.434,0.109c-0.735,0.459-1.184,1.265-1.184,2.125v12.564
	c-1.644,2.956-2.511,6.285-2.511,9.69c0,2.125,0.384,4.22,1.125,6.216l1.516,4.042H9.498C8.121,42.007,7,43.126,7,44.505
	s1.121,2.499,2.498,2.499h4.526l0.7,1.892c0.199,0.527,0.438,1.028,0.708,1.518l-3.347,1.923c-1.187,0.696-1.607,2.224-0.902,3.412
	c0.687,1.2,2.215,1.607,3.41,0.916l4.093-2.362c2.172,1.705,4.879,2.701,7.745,2.701h4.314v-6.252l-3.23-3.23
	c-0.335-0.334-0.51-0.781-0.51-1.255c0-0.976,0.79-1.766,1.765-1.766h6.459c0.975,0,1.767,0.79,1.767,1.766
	c0,0.474-0.177,0.921-0.51,1.255l-3.232,3.23v6.252h4.314c2.868,0,5.575-1.004,7.745-2.701l4.093,2.362
	c1.197,0.688,2.724,0.284,3.412-0.916c0.693-1.188,0.284-2.716-0.904-3.412l-3.347-1.923c0.271-0.489,0.509-0.99,0.708-1.518
	l0.7-1.892h4.526c1.379,0,2.498-1.12,2.498-2.499s-1.119-2.498-2.498-2.498L54.522,42.009z M23.267,39.511
	c-2.064,0-3.753-1.689-3.753-3.753c0-2.064,1.688-3.754,3.753-3.754c2.076,0,3.752,1.689,3.752,3.754
	C27.019,37.821,25.343,39.511,23.267,39.511z M40.776,39.511c-2.075,0-3.752-1.689-3.752-3.753c0-2.064,1.677-3.754,3.752-3.754
	c2.064,0,3.742,1.689,3.742,3.754C44.519,37.821,42.841,39.511,40.776,39.511z"/>
</svg>
